name ./resultDataOpenSim/trcMotMarkerGrf/sub10/grf-15-05.mot
datacolumns 19
datarows 27
range 1.50000000 1.60400000
endheader

                time	     ground_force_vx	     ground_force_vy	     ground_force_vz	     ground_force_px	     ground_force_py	     ground_force_pz	   l_ground_force_vx	   l_ground_force_vy	   l_ground_force_vz	   l_ground_force_px	   l_ground_force_py	   l_ground_force_pz	     ground_torque_x	     ground_torque_y	     ground_torque_z	   l_ground_torque_x	   l_ground_torque_y	   l_ground_torque_z	
          1.50000000	         32.35434032	        413.24351805	        -10.46368479	          0.78983546	          0.00000000	         -0.04410234	          0.00000000	          0.00000000	          0.00000000	          0.00000000	          0.00000000	          0.00000000	          0.00000000	          3.63747379	          0.00000000	          0.00000000	          0.00000000	          0.00000000	
          1.50400000	         34.71479301	        421.96698080	        -12.16969518	          0.79058645	          0.00000000	         -0.04412904	          0.00000000	          0.00000000	          0.00000000	          0.00000000	          0.00000000	          0.00000000	          0.00000000	          3.83992500	          0.00000000	          0.00000000	          0.00000000	          0.00000000	
          1.50800000	         36.98689848	        431.34415678	        -14.14338160	          0.79140712	          0.00000000	         -0.04416029	          0.00000000	          0.00000000	          0.00000000	          0.00000000	          0.00000000	          0.00000000	          0.00000000	          4.03907747	          0.00000000	          0.00000000	          0.00000000	          0.00000000	
          1.51200000	         39.24171441	        441.41202948	        -16.13787243	          0.79229487	          0.00000000	         -0.04421459	          0.00000000	          0.00000000	          0.00000000	          0.00000000	          0.00000000	          0.00000000	          0.00000000	          4.22107073	          0.00000000	          0.00000000	          0.00000000	          0.00000000	
          1.51600000	         41.54166246	        452.16450232	        -17.92364562	          0.79324491	          0.00000000	         -0.04430191	          0.00000000	          0.00000000	          0.00000000	          0.00000000	          0.00000000	          0.00000000	          0.00000000	          4.37383092	          0.00000000	          0.00000000	          0.00000000	          0.00000000	
          1.52000000	         43.91443859	        463.56412959	        -19.32879871	          0.79426129	          0.00000000	         -0.04442210	          0.00000000	          0.00000000	          0.00000000	          0.00000000	          0.00000000	          0.00000000	          0.00000000	          4.48914392	          0.00000000	          0.00000000	          0.00000000	          0.00000000	
          1.52400000	         46.33613410	        475.55118330	        -20.26562455	          0.79535413	          0.00000000	         -0.04457037	          0.00000000	          0.00000000	          0.00000000	          0.00000000	          0.00000000	          0.00000000	          0.00000000	          4.56400269	          0.00000000	          0.00000000	          0.00000000	          0.00000000	
          1.52800000	         48.73435310	        488.03288441	        -20.74056667	          0.79653496	          0.00000000	         -0.04473993	          0.00000000	          0.00000000	          0.00000000	          0.00000000	          0.00000000	          0.00000000	          0.00000000	          4.60100888	          0.00000000	          0.00000000	          0.00000000	          0.00000000	
          1.53200000	         51.00881018	        500.88119455	        -20.84808936	          0.79781185	          0.00000000	         -0.04492723	          0.00000000	          0.00000000	          0.00000000	          0.00000000	          0.00000000	          0.00000000	          0.00000000	          4.60776070	          0.00000000	          0.00000000	          0.00000000	          0.00000000	
          1.53600000	         53.05892453	        513.95397214	        -20.74882643	          0.79918715	          0.00000000	         -0.04512927	          0.00000000	          0.00000000	          0.00000000	          0.00000000	          0.00000000	          0.00000000	          0.00000000	          4.59533006	          0.00000000	          0.00000000	          0.00000000	          0.00000000	
          1.54000000	         54.81281160	        527.12274470	        -20.63516762	          0.80065715	          0.00000000	         -0.04533719	          0.00000000	          0.00000000	          0.00000000	          0.00000000	          0.00000000	          0.00000000	          0.00000000	          4.57612585	          0.00000000	          0.00000000	          0.00000000	          0.00000000	
          1.54400000	         56.25355528	        540.29316591	        -20.69339716	          0.80221692	          0.00000000	         -0.04554046	          0.00000000	          0.00000000	          0.00000000	          0.00000000	          0.00000000	          0.00000000	          0.00000000	          4.56159204	          0.00000000	          0.00000000	          0.00000000	          0.00000000	
          1.54800000	         57.43382951	        553.40790681	        -21.07141613	          0.80385479	          0.00000000	         -0.04573015	          0.00000000	          0.00000000	          0.00000000	          0.00000000	          0.00000000	          0.00000000	          0.00000000	          4.56021984	          0.00000000	          0.00000000	          0.00000000	          0.00000000	
          1.55200000	         58.47462118	        566.42768627	        -21.85505988	          0.80554686	          0.00000000	         -0.04589793	          0.00000000	          0.00000000	          0.00000000	          0.00000000	          0.00000000	          0.00000000	          0.00000000	          4.57627493	          0.00000000	          0.00000000	          0.00000000	          0.00000000	
          1.55600000	         59.55307867	        579.30996064	        -23.05499965	          0.80726343	          0.00000000	         -0.04604032	          0.00000000	          0.00000000	          0.00000000	          0.00000000	          0.00000000	          0.00000000	          0.00000000	          4.60949653	          0.00000000	          0.00000000	          0.00000000	          0.00000000	
          1.56000000	         60.88377647	        592.01069274	        -24.60754274	          0.80896947	          0.00000000	         -0.04616120	          0.00000000	          0.00000000	          0.00000000	          0.00000000	          0.00000000	          0.00000000	          0.00000000	          4.65581634	          0.00000000	          0.00000000	          0.00000000	          0.00000000	
          1.56400000	         62.69306994	        604.51044409	        -26.38784404	          0.81061583	          0.00000000	         -0.04626755	          0.00000000	          0.00000000	          0.00000000	          0.00000000	          0.00000000	          0.00000000	          0.00000000	          4.70888960	          0.00000000	          0.00000000	          0.00000000	          0.00000000	
          1.56800000	         65.18341119	        616.84648297	        -28.23132392	          0.81214218	          0.00000000	         -0.04636690	          0.00000000	          0.00000000	          0.00000000	          0.00000000	          0.00000000	          0.00000000	          0.00000000	          4.76201173	          0.00000000	          0.00000000	          0.00000000	          0.00000000	
          1.57200000	         68.48460579	        629.13342275	        -29.96174879	          0.81349515	          0.00000000	         -0.04646858	          0.00000000	          0.00000000	          0.00000000	          0.00000000	          0.00000000	          0.00000000	          0.00000000	          4.80989702	          0.00000000	          0.00000000	          0.00000000	          0.00000000	
          1.57600000	         72.60057126	        641.55758883	        -31.42323882	          0.81464847	          0.00000000	         -0.04658480	          0.00000000	          0.00000000	          0.00000000	          0.00000000	          0.00000000	          0.00000000	          0.00000000	          4.84984467	          0.00000000	          0.00000000	          0.00000000	          0.00000000	
          1.58000000	         77.38249167	        654.33117877	        -32.50969272	          0.81561149	          0.00000000	         -0.04672561	          0.00000000	          0.00000000	          0.00000000	          0.00000000	          0.00000000	          0.00000000	          0.00000000	          4.88200378	          0.00000000	          0.00000000	          0.00000000	          0.00000000	
          1.58400000	         82.56556648	        667.61125306	        -33.18382928	          0.81642452	          0.00000000	         -0.04689486	          0.00000000	          0.00000000	          0.00000000	          0.00000000	          0.00000000	          0.00000000	          0.00000000	          4.90874173	          0.00000000	          0.00000000	          0.00000000	          0.00000000	
          1.58800000	         87.86752106	        681.42197056	        -33.48138855	          0.81713986	          0.00000000	         -0.04708950	          0.00000000	          0.00000000	          0.00000000	          0.00000000	          0.00000000	          0.00000000	          0.00000000	          4.93343292	          0.00000000	          0.00000000	          0.00000000	          0.00000000	
          1.59200000	         93.08987668	        695.62974959	        -33.50410311	          0.81778811	          0.00000000	         -0.04730594	          0.00000000	          0.00000000	          0.00000000	          0.00000000	          0.00000000	          0.00000000	          0.00000000	          4.95918988	          0.00000000	          0.00000000	          0.00000000	          0.00000000	
          1.59600000	         98.15488973	        709.98896681	        -33.40278402	          0.81837421	          0.00000000	         -0.04753668	          0.00000000	          0.00000000	          0.00000000	          0.00000000	          0.00000000	          0.00000000	          0.00000000	          4.98807382	          0.00000000	          0.00000000	          0.00000000	          0.00000000	
          1.60000000	        103.07035931	        724.23205904	        -33.34335789	          0.81889647	          0.00000000	         -0.04777390	          0.00000000	          0.00000000	          0.00000000	          0.00000000	          0.00000000	          0.00000000	          0.00000000	          5.02111558	          0.00000000	          0.00000000	          0.00000000	          0.00000000	
          1.60400000	        107.88113326	        738.15420753	        -33.46218915	          0.81935679	          0.00000000	         -0.04801292	          0.00000000	          0.00000000	          0.00000000	          0.00000000	          0.00000000	          0.00000000	          0.00000000	          5.05906569	          0.00000000	          0.00000000	          0.00000000	          0.00000000	
